<svg width="100%" height="100%" id="svg" viewBox="0 0 1440 590" xmlns="http://www.w3.org/2000/svg" class="transition duration-300 ease-in-out delay-150">
	<defs>
		<linearGradient id="gradient" x1="0%" y1="50%" x2="100%" y2="50%">
			<stop offset="5%" stop-color="#F78DA7"></stop>
			<stop offset="95%" stop-color="#8ED1FC"></stop>
		</linearGradient>
	</defs>
	<path d="M 0,600 L 0,112 C 78.96650717703349,94.8133971291866 157.93301435406698,77.62679425837321 251,91 C 344.066985645933,104.37320574162679 451.23444976076553,148.3062200956938 548,147 C 644.7655502392345,145.6937799043062 731.1291866028708,99.14832535885166 831,96 C 930.8708133971292,92.85167464114834 1044.248803827751,133.10047846889952 1148,143 C 1251.751196172249,152.89952153110048 1345.8755980861245,132.44976076555025 1440,112 L 1440,600 L 0,600 Z" stroke="none" stroke-width="0" fill="url(#gradient)" fill-opacity="0.4" class="transition-all duration-300 ease-in-out delay-150 path-0"></path>
	<defs>
		<linearGradient id="gradient" x1="0%" y1="50%" x2="100%" y2="50%">
			<stop offset="5%" stop-color="#F78DA7"></stop>
			<stop offset="95%" stop-color="#8ED1FC"></stop>
		</linearGradient>
	</defs>
	<path d="M 0,600 L 0,262 C 60.11483253588517,291.8373205741627 120.22966507177034,321.67464114832535 236,316 C 351.77033492822966,310.32535885167465 523.1961722488038,269.1387559808612 623,271 C 722.8038277511962,272.8612440191388 750.9856459330146,317.77033492822966 838,318 C 925.0143540669854,318.22966507177034 1070.8612440191387,273.7799043062201 1181,257 C 1291.1387559808613,240.2200956937799 1365.5693779904307,251.11004784688996 1440,262 L 1440,600 L 0,600 Z" stroke="none" stroke-width="0" fill="url(#gradient)" fill-opacity="0.53" class="transition-all duration-300 ease-in-out delay-150 path-1"></path>
	<defs>
		<linearGradient id="gradient" x1="0%" y1="50%" x2="100%" y2="50%">
			<stop offset="5%" stop-color="#F78DA7"></stop>
			<stop offset="95%" stop-color="#8ED1FC"></stop>
		</linearGradient>
	</defs>
	<path d="M 0,600 L 0,412 C 63.1866028708134,391.36842105263156 126.3732057416268,370.7368421052632 237,375 C 347.6267942583732,379.2631578947368 505.6937799043062,408.4210526315789 601,428 C 696.3062200956938,447.5789473684211 728.8516746411482,457.5789473684211 811,452 C 893.1483253588518,446.4210526315789 1024.8995215311006,425.2631578947369 1138,416 C 1251.1004784688994,406.7368421052631 1345.5502392344497,409.36842105263156 1440,412 L 1440,600 L 0,600 Z" stroke="none" stroke-width="0" fill="url(#gradient)" fill-opacity="1" class="transition-all duration-300 ease-in-out delay-150 path-2"></path>
</svg>